<svg width="218" height="42" viewBox="0 0 218 42" fill="none" xmlns="http://www.w3.org/2000/svg">
<rect y="1.64844" width="38.7031" height="38.7031" rx="6.11102" fill="#235947"/>
<g clip-path="url(#clip0_56_1898)">
<path d="M9.57826 25.3486C9.09399 25.5453 8.57782 24.9801 8.85283 24.5356C12.1668 19.179 15.4689 13.8152 18.7942 8.4645C18.9939 8.14318 19.4619 8.14425 19.6602 8.46641C22.7337 13.4586 25.8083 18.4494 28.8729 23.446C29.1326 23.8695 28.6868 24.3933 28.2193 24.2253C26.5223 23.6158 24.7648 23.1815 22.9786 22.9267C22.8222 22.9044 22.684 22.8123 22.6052 22.6754C21.6137 20.9536 20.6497 19.2155 19.6791 17.4829C19.4883 17.1423 19.0012 17.1349 18.7993 17.4689C17.8062 19.1124 16.8075 20.7531 15.8107 22.3942C15.5849 22.766 15.9006 23.2383 16.3333 23.193C20.4477 22.7622 24.7378 23.6822 28.1712 26.0254C30.324 27.3899 32.1221 29.3006 33.355 31.53C33.5367 31.8587 33.2923 32.2508 32.9167 32.2511C30.9158 32.2528 28.9148 32.2539 26.9138 32.251C26.6921 32.2507 26.4971 32.1067 26.4241 31.8974C25.378 28.9009 23.1956 26.2136 20.1963 25.0374C16.7912 23.6757 12.9423 23.9821 9.57826 25.3486Z" fill="white"/>
<path d="M11.8011 26.6124C14.7955 25.6509 18.1912 25.6407 21.0675 27.0055C22.3101 27.584 23.463 28.4864 24.0436 29.7596C22.0106 28.4987 19.4786 27.9711 17.1422 28.5944C15.0054 29.0161 13.2067 30.4603 11.9682 32.206C9.58488 32.1979 7.20361 32.2142 4.82031 32.1979C6.25437 29.4907 8.88822 27.4964 11.8011 26.6124Z" fill="white"/>
</g>
<path d="M51.8707 32H47.4382L53.4352 9.18551H60.9314L66.9283 32H62.4958L61.2573 26.9808H53.1092L51.8707 32ZM56.8899 11.8907L54.1196 23.0046H60.2469L57.4766 11.8907H56.8899ZM69.0073 23.9823V23.4609C69.0073 18.3765 72.3643 15.378 76.3732 15.378C79.3064 15.378 80.6753 16.6817 81.3923 17.7898H81.979V15.8343H86.0204V34.8681C86.0204 37.0844 84.5864 38.5184 82.4353 38.5184H71.6147V34.9333H81.0012C81.5879 34.9333 81.9138 34.6074 81.9138 33.9555V29.7511H81.3272C80.6753 30.8267 79.339 32.0652 76.3732 32.0652C72.3969 32.0652 69.0073 29.0667 69.0073 23.9823ZM77.5465 28.4801C80.0561 28.4801 81.979 26.8179 81.979 23.8846V23.5586C81.979 20.6253 80.0887 18.9632 77.5465 18.9632C75.0043 18.9632 73.1139 20.6253 73.1139 23.5586V23.8846C73.1139 26.8179 75.0369 28.4801 77.5465 28.4801ZM97.9392 32.4563C93.083 32.4563 89.7912 29.1971 89.7912 24.1127V23.7216C89.7912 18.6372 93.0504 15.378 97.874 15.378C102.632 15.378 105.729 18.7676 105.729 23.7216V25.1231H93.963C94.0607 27.3393 95.7881 28.8712 98.0696 28.8712C100.351 28.8712 101.296 27.6978 101.85 26.4593L105.207 28.2193C104.295 29.9467 102.372 32.4563 97.9392 32.4563ZM93.9956 22.0594H101.557C101.361 20.2017 99.9599 18.9632 97.8414 18.9632C95.6252 18.9632 94.2889 20.2017 93.9956 22.0594ZM113.49 32H109.384V15.8343H113.425V17.9528H114.012C114.533 16.8447 115.837 15.5736 118.738 15.5736C122.518 15.5736 125.028 18.3439 125.028 22.3527V32H120.921V22.6787C120.921 20.2342 119.683 19.0283 117.467 19.0283C114.957 19.0283 113.49 20.7883 113.49 23.7868V32ZM137.257 32.4563C131.977 32.4563 128.294 29.523 128.294 24.569V23.6564H132.531V24.569C132.531 27.3067 134.324 28.6756 137.257 28.6756C140.19 28.6756 141.657 27.3719 141.657 25.5468C141.657 23.6564 139.995 23.0046 137.061 22.3527L136.312 22.1898C131.586 21.1468 128.816 19.5498 128.816 15.378C128.816 11.2062 131.977 8.72922 136.866 8.72922C141.755 8.72922 145.307 11.2062 145.307 16.1602V17.138H141.07V16.1602C141.07 13.5529 139.473 12.5099 136.866 12.5099C134.259 12.5099 133.053 13.5529 133.053 15.2476C133.053 16.9424 134.324 17.7572 137.061 18.3439L137.811 18.5069C142.667 19.5498 145.894 21.2446 145.894 25.4164C145.894 29.5882 142.537 32.4563 137.257 32.4563ZM153.339 32H149.233V9.18551H153.339V17.8224H153.926C154.448 16.7795 155.719 15.5736 158.587 15.5736C162.367 15.5736 164.877 18.3439 164.877 22.3527V32H160.77V22.6787C160.77 20.2342 159.532 19.0283 157.316 19.0283C154.806 19.0283 153.339 20.7883 153.339 23.7868V32ZM174.336 32.4563C170.881 32.4563 168.274 30.5985 168.274 27.2741C168.274 23.9497 170.881 22.2224 174.531 22.2224H178.964V21.3098C178.964 19.8105 178.051 18.7024 175.965 18.7024C173.912 18.7024 172.999 19.7454 172.706 21.212L168.925 19.9409C169.708 17.4965 171.826 15.378 176.03 15.378C180.267 15.378 182.94 17.5617 182.94 21.6031V27.6327C182.94 28.2845 183.266 28.6104 183.853 28.6104H185.156V32H182.418C180.821 32 179.648 31.1526 179.648 29.8489V29.8163H179.029C178.736 30.6311 177.725 32.4563 174.336 32.4563ZM175.053 29.1319C177.334 29.1319 178.964 27.763 178.964 25.6119V25.286H174.825C173.293 25.286 172.38 25.9705 172.38 27.1438C172.38 28.3171 173.293 29.1319 175.053 29.1319ZM192.265 32H188.159V15.8343H192.2V17.6595H192.787C193.243 16.3558 194.416 15.7691 195.916 15.7691H197.871V19.4194H195.851C193.765 19.4194 192.265 20.5276 192.265 22.809V32ZM205.188 32H201.081V9.18551H205.188V21.7987H205.774L211.119 15.8343H216.465L209.001 23.6564L216.725 32H211.445L205.774 25.5794H205.188V32Z" fill="#151314"/>
<defs>
<clipPath id="clip0_56_1898">
<rect width="30.5551" height="30.5551" fill="white" transform="translate(4.07422 5.7207)"/>
</clipPath>
</defs>
</svg>
